<svg width="120" height="22" viewBox="0 0 120 22" fill="none" xmlns="http://www.w3.org/2000/svg">
<path d="M107.554 21.2964H102.611L90.3654 0.706116H98.0892L107.394 16.434L116.739 0.706116H120L107.554 21.2964Z" fill="#333333"/>
<path d="M88.2637 5.62857L84.962 6.12882C82.7209 3.16734 78.2587 1.82667 73.6163 2.16684C70.5148 2.38695 68.914 3.40746 69.014 5.20836C69.1341 7.16935 70.5548 7.98976 73.3762 8.51002L82.0606 10.1108C86.5228 10.9312 89.2842 12.9722 89.3842 15.4135C89.5843 20.0358 82.4207 21.4565 76.4778 21.6366C68.3937 21.8967 63.7314 19.8957 61.5703 14.9532L64.5118 14.2329C65.4322 16.2339 67.4533 18.1148 69.9945 18.9352C71.9555 19.5555 74.2767 19.8557 77.3782 19.6956C79.1591 19.6156 82.0205 18.7151 82.5208 16.494C83.0411 14.1128 81.1201 13.1723 77.5183 12.6721C77.5183 12.6721 73.0561 12.0518 68.894 11.2514C61.6103 9.85068 60.99 4.90821 65.3922 2.32692C67.3332 1.20636 70.3147 0.546032 73.4963 0.385952C79.1591 0.125822 85.3422 0.886201 88.2637 5.62857Z" fill="#333333"/>
<path d="M42.6407 18.8552C38.5586 17.7546 36.6577 14.633 36.6577 11.4915C36.6577 10.2308 36.7577 10.2308 36.7577 10.2308H57.9283C57.5681 4.82814 53.366 0.365906 44.6016 0.365906C35.8373 0.365906 29.9543 4.82814 29.9543 11.4915C29.9194 13.5086 30.6567 15.4629 32.0153 16.9542C33.1759 18.3949 34.8768 19.5355 37.1379 20.3759C39.4385 21.2473 41.8815 21.6816 44.3415 21.6566C50.1444 21.6566 54.9068 19.3354 57.6682 16.0538L55.0869 14.9532C52.1454 18.635 46.7027 19.9357 42.6407 18.8552V18.8552ZM39.259 4.50798C40.8398 2.98722 42.6207 2.22684 44.5816 2.22684C48.3435 2.22684 50.3912 4.31455 50.7247 8.48997H37.0379C37.3982 6.98374 38.1667 5.60597 39.259 4.50798" fill="#333333"/>
<path d="M16.1681 10.2509C18.9895 9.93073 24.1921 8.49001 24.1921 5.08831C24.1921 1.44648 15.7879 0.706116 10.4652 0.706116H0V21.2964H10.1451C14.7074 21.2964 26.6333 21.1163 26.6333 15.6536C26.6333 11.9717 20.2701 10.8512 16.1681 10.491C16.048 10.471 16.048 10.2509 16.1681 10.2509ZM6.52326 2.20687H9.26463C12.4462 2.20687 16.6083 2.94724 16.4282 5.64859C16.2081 8.97025 10.8254 9.6706 8.2041 9.6706H6.52326V2.20687ZM7.90395 19.6956H6.54327V11.1113H8.44422C13.8069 11.1113 18.7294 12.1518 18.7294 15.1333C18.7094 18.1548 15.4477 19.6956 7.90395 19.6956Z" fill="#333333"/>
</svg>
